<mxfile host="65bd71144e">
    <diagram id="DUKfKug5vApFZQZ7h-Wh" name="Anwendungsdiagramm">
        <mxGraphModel dx="1035" dy="526" grid="1" gridSize="10" guides="1" tooltips="1" connect="1" arrows="1" fold="1" page="1" pageScale="1" pageWidth="1169" pageHeight="827" math="0" shadow="0">
            <root>
                <mxCell id="0"/>
                <mxCell id="1" parent="0"/>
                <mxCell id="34" value="DRAGEES" style="shape=umlFrame;whiteSpace=wrap;html=1;width=90;height=30;" parent="1" vertex="1">
                    <mxGeometry x="110" width="920" height="800" as="geometry"/>
                </mxCell>
                <mxCell id="2" value="Reiseantrag erstellen&lt;br&gt;Extension point: Änderung &amp;amp; Fahrkarte" style="ellipse;whiteSpace=wrap;html=1;" parent="1" vertex="1">
                    <mxGeometry x="360" y="460" width="140" height="70" as="geometry"/>
                </mxCell>
                <mxCell id="104" style="edgeStyle=none;html=1;exitX=1;exitY=1;exitDx=0;exitDy=0;exitPerimeter=0;endArrow=none;endFill=0;" parent="1" source="6" target="2" edge="1">
                    <mxGeometry relative="1" as="geometry"/>
                </mxCell>
                <mxCell id="105" style="edgeStyle=none;html=1;exitX=0.5;exitY=0.5;exitDx=0;exitDy=0;exitPerimeter=0;endArrow=none;endFill=0;" parent="1" source="6" target="102" edge="1">
                    <mxGeometry relative="1" as="geometry"/>
                </mxCell>
                <mxCell id="109" style="edgeStyle=none;html=1;exitX=1;exitY=0.3333333333333333;exitDx=0;exitDy=0;exitPerimeter=0;endArrow=none;endFill=0;" parent="1" source="6" target="108" edge="1">
                    <mxGeometry relative="1" as="geometry"/>
                </mxCell>
                <mxCell id="127" style="edgeStyle=none;html=1;exitX=0.75;exitY=0.1;exitDx=0;exitDy=0;exitPerimeter=0;endArrow=none;endFill=0;" edge="1" parent="1" source="6" target="126">
                    <mxGeometry relative="1" as="geometry"/>
                </mxCell>
                <mxCell id="141" style="edgeStyle=none;html=1;exitX=1;exitY=0.3333333333333333;exitDx=0;exitDy=0;exitPerimeter=0;endArrow=none;endFill=0;" edge="1" parent="1" source="6" target="140">
                    <mxGeometry relative="1" as="geometry"/>
                </mxCell>
                <mxCell id="147" style="edgeStyle=none;html=1;exitX=1;exitY=0.3333333333333333;exitDx=0;exitDy=0;exitPerimeter=0;endArrow=none;endFill=0;" edge="1" parent="1" source="6" target="146">
                    <mxGeometry relative="1" as="geometry"/>
                </mxCell>
                <mxCell id="6" value="Antragsteller" style="shape=umlActor;verticalLabelPosition=bottom;verticalAlign=top;html=1;" parent="1" vertex="1">
                    <mxGeometry x="39" y="235" width="30" height="60" as="geometry"/>
                </mxCell>
                <mxCell id="13" value="Benachrichtigung an&amp;nbsp;&lt;br&gt;Vorgesetzten &amp;amp;&amp;nbsp;&lt;br&gt;Verantwortlichen" style="ellipse;whiteSpace=wrap;html=1;" parent="1" vertex="1">
                    <mxGeometry x="840" y="690" width="140" height="70" as="geometry"/>
                </mxCell>
                <mxCell id="56" style="edgeStyle=none;html=1;exitX=0;exitY=1;exitDx=0;exitDy=0;exitPerimeter=0;endArrow=none;endFill=0;" parent="1" source="14" target="19" edge="1">
                    <mxGeometry relative="1" as="geometry"/>
                </mxCell>
                <mxCell id="14" value="Vorgesetzter" style="shape=umlActor;verticalLabelPosition=bottom;verticalAlign=top;html=1;" parent="1" vertex="1">
                    <mxGeometry x="1083" y="530" width="30" height="60" as="geometry"/>
                </mxCell>
                <mxCell id="53" style="edgeStyle=none;html=1;exitX=0;exitY=1;exitDx=0;exitDy=0;exitPerimeter=0;endArrow=none;endFill=0;" parent="1" source="15" target="19" edge="1">
                    <mxGeometry relative="1" as="geometry"/>
                </mxCell>
                <mxCell id="15" value="Kostenstellen&lt;br&gt;verantwortlicher" style="shape=umlActor;verticalLabelPosition=bottom;verticalAlign=top;html=1;" parent="1" vertex="1">
                    <mxGeometry x="1083" y="380" width="30" height="60" as="geometry"/>
                </mxCell>
                <mxCell id="19" value="Genehmigung&lt;br&gt;einholen" style="ellipse;whiteSpace=wrap;html=1;" parent="1" vertex="1">
                    <mxGeometry x="840" y="525" width="140" height="70" as="geometry"/>
                </mxCell>
                <mxCell id="144" style="edgeStyle=none;html=1;exitX=0.5;exitY=0.5;exitDx=0;exitDy=0;exitPerimeter=0;endArrow=none;endFill=0;" edge="1" parent="1" source="62" target="80">
                    <mxGeometry relative="1" as="geometry"/>
                </mxCell>
                <mxCell id="62" value="Reisebüro&lt;br&gt;(Hochschulintern)" style="shape=umlActor;verticalLabelPosition=bottom;verticalAlign=top;html=1;" parent="1" vertex="1">
                    <mxGeometry x="50" y="700" width="30" height="60" as="geometry"/>
                </mxCell>
                <mxCell id="71" value="Dienstantrag&amp;nbsp;&lt;br&gt;ändern oder&amp;nbsp;&lt;br&gt;zurückziehen" style="ellipse;whiteSpace=wrap;html=1;" parent="1" vertex="1">
                    <mxGeometry x="201" y="632" width="140" height="70" as="geometry"/>
                </mxCell>
                <mxCell id="80" value="Beantragung&amp;nbsp;&lt;br&gt;Bahnfahrkarte" style="ellipse;whiteSpace=wrap;html=1;" parent="1" vertex="1">
                    <mxGeometry x="390" y="710" width="140" height="70" as="geometry"/>
                </mxCell>
                <mxCell id="142" style="edgeStyle=none;html=1;exitX=1;exitY=0.3333333333333333;exitDx=0;exitDy=0;exitPerimeter=0;endArrow=none;endFill=0;" edge="1" parent="1" source="94" target="126">
                    <mxGeometry relative="1" as="geometry"/>
                </mxCell>
                <mxCell id="143" style="edgeStyle=none;html=1;exitX=1;exitY=1;exitDx=0;exitDy=0;exitPerimeter=0;endArrow=none;endFill=0;" edge="1" parent="1" source="94" target="140">
                    <mxGeometry relative="1" as="geometry"/>
                </mxCell>
                <mxCell id="94" value="Haushaltsstelle" style="shape=umlActor;verticalLabelPosition=bottom;verticalAlign=top;html=1;" parent="1" vertex="1">
                    <mxGeometry x="39" y="80" width="30" height="60" as="geometry"/>
                </mxCell>
                <mxCell id="99" value="&amp;lt;&amp;lt;includes&amp;gt;&amp;gt;" style="endArrow=open;endSize=12;dashed=1;html=1;" parent="1" source="19" target="13" edge="1">
                    <mxGeometry width="160" relative="1" as="geometry">
                        <mxPoint x="470" y="540" as="sourcePoint"/>
                        <mxPoint x="630" y="540" as="targetPoint"/>
                    </mxGeometry>
                </mxCell>
                <mxCell id="102" value="Daten erfassen&amp;nbsp;&lt;br&gt;Datum, Ort, Kosten" style="ellipse;whiteSpace=wrap;html=1;" parent="1" vertex="1">
                    <mxGeometry x="260" y="330" width="140" height="70" as="geometry"/>
                </mxCell>
                <mxCell id="107" value="&amp;lt;&amp;lt;includes&amp;gt;&amp;gt;" style="endArrow=open;endSize=12;dashed=1;html=1;" parent="1" source="2" target="102" edge="1">
                    <mxGeometry width="160" relative="1" as="geometry">
                        <mxPoint x="450" y="345" as="sourcePoint"/>
                        <mxPoint x="610" y="345" as="targetPoint"/>
                    </mxGeometry>
                </mxCell>
                <mxCell id="108" value="Über das Ergebnis&amp;nbsp;&lt;br&gt;informieren" style="ellipse;whiteSpace=wrap;html=1;" parent="1" vertex="1">
                    <mxGeometry x="670" y="360" width="140" height="70" as="geometry"/>
                </mxCell>
                <mxCell id="110" value="&amp;lt;&amp;lt;includes&amp;gt;&amp;gt;" style="endArrow=open;endSize=12;dashed=1;html=1;" parent="1" source="2" target="19" edge="1">
                    <mxGeometry width="160" relative="1" as="geometry">
                        <mxPoint x="550" y="290" as="sourcePoint"/>
                        <mxPoint x="710" y="290" as="targetPoint"/>
                    </mxGeometry>
                </mxCell>
                <mxCell id="111" value="&amp;lt;&amp;lt;includes&amp;gt;&amp;gt;" style="endArrow=open;endSize=12;dashed=1;html=1;" edge="1" parent="1" source="108" target="19">
                    <mxGeometry width="160" relative="1" as="geometry">
                        <mxPoint x="610" y="320" as="sourcePoint"/>
                        <mxPoint x="770" y="320" as="targetPoint"/>
                    </mxGeometry>
                </mxCell>
                <mxCell id="118" value="" style="edgeStyle=none;html=1;endArrow=none;endFill=0;entryX=1;entryY=0.5;entryDx=0;entryDy=0;" edge="1" parent="1" source="114" target="119">
                    <mxGeometry relative="1" as="geometry">
                        <mxPoint x="341" y="592" as="targetPoint"/>
                    </mxGeometry>
                </mxCell>
                <mxCell id="114" value="Condition: (Antragsende == Abänderung Antrag)&lt;br&gt;Extension point: Änderung und Zurückziehen" style="shape=note;whiteSpace=wrap;html=1;backgroundOutline=1;darkOpacity=0.05;direction=east;" vertex="1" parent="1">
                    <mxGeometry x="176" y="489" width="115" height="112.5" as="geometry"/>
                </mxCell>
                <mxCell id="115" value="&amp;lt;&amp;lt;extend&amp;gt;&amp;gt;" style="endArrow=open;endSize=12;dashed=1;html=1;startArrow=none;" edge="1" parent="1" source="119" target="2">
                    <mxGeometry width="160" relative="1" as="geometry">
                        <mxPoint x="261" y="542" as="sourcePoint"/>
                        <mxPoint x="421" y="542" as="targetPoint"/>
                    </mxGeometry>
                </mxCell>
                <mxCell id="119" value="" style="ellipse;whiteSpace=wrap;html=1;aspect=fixed;" vertex="1" parent="1">
                    <mxGeometry x="331" y="592" width="10" height="10" as="geometry"/>
                </mxCell>
                <mxCell id="120" value="" style="endArrow=none;endSize=12;dashed=1;html=1;" edge="1" parent="1" source="71" target="119">
                    <mxGeometry width="160" relative="1" as="geometry">
                        <mxPoint x="301.6701603319592" y="635.538351659474" as="sourcePoint"/>
                        <mxPoint x="430.3593024835169" y="503.4688244763879" as="targetPoint"/>
                    </mxGeometry>
                </mxCell>
                <mxCell id="121" value="&amp;lt;&amp;lt;extend&amp;gt;&amp;gt;" style="endArrow=open;endSize=12;dashed=1;html=1;startArrow=none;entryX=0.5;entryY=1;entryDx=0;entryDy=0;" edge="1" parent="1" source="123" target="2">
                    <mxGeometry width="160" relative="1" as="geometry">
                        <mxPoint x="349.53553390591844" y="603.4644660940816" as="sourcePoint"/>
                        <mxPoint x="439.69504831499955" y="513.3049516850004" as="targetPoint"/>
                    </mxGeometry>
                </mxCell>
                <mxCell id="122" value="Condition: (Dienstreisende == Bahnfahrkarte anfordern)&lt;br&gt;Extension point: Beantragung&amp;nbsp;&lt;br&gt;Bahnkarte" style="shape=note;whiteSpace=wrap;html=1;backgroundOutline=1;darkOpacity=0.05;direction=east;" vertex="1" parent="1">
                    <mxGeometry x="511" y="584" width="114" height="126" as="geometry"/>
                </mxCell>
                <mxCell id="123" value="" style="ellipse;whiteSpace=wrap;html=1;aspect=fixed;" vertex="1" parent="1">
                    <mxGeometry x="440" y="632" width="10" height="10" as="geometry"/>
                </mxCell>
                <mxCell id="124" value="" style="endArrow=none;endSize=12;dashed=1;html=1;startArrow=none;entryX=0.5;entryY=1;entryDx=0;entryDy=0;" edge="1" parent="1" source="80" target="123">
                    <mxGeometry width="160" relative="1" as="geometry">
                        <mxPoint x="460" y="640" as="sourcePoint"/>
                        <mxPoint x="460" y="475" as="targetPoint"/>
                    </mxGeometry>
                </mxCell>
                <mxCell id="125" value="" style="edgeStyle=none;html=1;endArrow=none;endFill=0;exitX=1;exitY=0.5;exitDx=0;exitDy=0;" edge="1" parent="1" source="123" target="122">
                    <mxGeometry relative="1" as="geometry">
                        <mxPoint x="491" y="665.9302325581423" as="sourcePoint"/>
                        <mxPoint x="540.9999999999898" y="690" as="targetPoint"/>
                    </mxGeometry>
                </mxCell>
                <mxCell id="126" value="Erstellungsantrag" style="ellipse;whiteSpace=wrap;html=1;" vertex="1" parent="1">
                    <mxGeometry x="220" y="30" width="140" height="70" as="geometry"/>
                </mxCell>
                <mxCell id="128" value="Belege beifügen" style="ellipse;whiteSpace=wrap;html=1;" vertex="1" parent="1">
                    <mxGeometry x="740" y="30" width="140" height="70" as="geometry"/>
                </mxCell>
                <mxCell id="129" value="&amp;lt;&amp;lt;extend&amp;gt;&amp;gt;" style="endArrow=open;endSize=12;dashed=1;html=1;startArrow=none;" edge="1" parent="1" source="131" target="128">
                    <mxGeometry x="0.0469" width="160" relative="1" as="geometry">
                        <mxPoint x="360" y="80" as="sourcePoint"/>
                        <mxPoint x="520" y="80" as="targetPoint"/>
                        <mxPoint as="offset"/>
                    </mxGeometry>
                </mxCell>
                <mxCell id="130" value="Condition: (Dienstreisende == Belege beifügen)&lt;br&gt;Extension point: Belege beifügen" style="shape=note;whiteSpace=wrap;html=1;backgroundOutline=1;darkOpacity=0.05;direction=east;" vertex="1" parent="1">
                    <mxGeometry x="680" y="110" width="300" height="40" as="geometry"/>
                </mxCell>
                <mxCell id="133" style="edgeStyle=none;html=1;exitX=1;exitY=1;exitDx=0;exitDy=0;entryX=0;entryY=0;entryDx=0;entryDy=0;entryPerimeter=0;endArrow=none;endFill=0;" edge="1" parent="1" source="131" target="130">
                    <mxGeometry relative="1" as="geometry"/>
                </mxCell>
                <mxCell id="131" value="" style="ellipse;whiteSpace=wrap;html=1;aspect=fixed;" vertex="1" parent="1">
                    <mxGeometry x="500" y="60" width="10" height="10" as="geometry"/>
                </mxCell>
                <mxCell id="132" value="" style="endArrow=none;endSize=12;dashed=1;html=1;" edge="1" parent="1" source="126" target="131">
                    <mxGeometry x="0.0469" width="160" relative="1" as="geometry">
                        <mxPoint x="329.0531046556571" y="89.26265005828367" as="sourcePoint"/>
                        <mxPoint x="541.006442163072" y="70.9137335288795" as="targetPoint"/>
                        <mxPoint as="offset"/>
                    </mxGeometry>
                </mxCell>
                <mxCell id="140" value="Abrechnungsbescheid&lt;br&gt;einsehbar" style="ellipse;whiteSpace=wrap;html=1;" vertex="1" parent="1">
                    <mxGeometry x="270" y="130" width="140" height="70" as="geometry"/>
                </mxCell>
                <mxCell id="146" value="Abrechnungsbescheid&lt;br&gt;drucken" style="ellipse;whiteSpace=wrap;html=1;" vertex="1" parent="1">
                    <mxGeometry x="550" y="250" width="140" height="70" as="geometry"/>
                </mxCell>
                <mxCell id="148" value="Condition: (Dienstreisende == Belege beifügen)&lt;br&gt;Extension point: Belege beifügen" style="shape=note;whiteSpace=wrap;html=1;backgroundOutline=1;darkOpacity=0.05;direction=east;" vertex="1" parent="1">
                    <mxGeometry x="720" y="250" width="300" height="40" as="geometry"/>
                </mxCell>
            </root>
        </mxGraphModel>
    </diagram>
</mxfile>